<svg width="36" height="40" viewBox="0 0 36 40" fill="none" xmlns="http://www.w3.org/2000/svg">
<g id="user-solid 1" clip-path="url(#clip0_11_55)">
<path id="Vector" d="M17.5016 20C20.1541 20 22.6978 18.9464 24.5734 17.0711C26.4489 15.1957 27.5026 12.6522 27.5026 10C27.5026 7.34784 26.4489 4.8043 24.5734 2.92893C22.6978 1.05357 20.1541 0 17.5016 0C14.8492 0 12.3054 1.05357 10.4299 2.92893C8.55437 4.8043 7.5007 7.34784 7.5007 10C7.5007 12.6522 8.55437 15.1957 10.4299 17.0711C12.3054 18.9464 14.8492 20 17.5016 20ZM13.931 23.75C6.23496 23.75 0 29.9844 0 37.6797C0 38.9609 1.03916 40 2.32053 40H32.6828C33.9641 40 35.0033 38.9609 35.0033 37.6797C35.0033 29.9844 28.7683 23.75 21.0723 23.75H13.931Z" fill="#757575"/>
</g>
<defs>
<clipPath id="clip0_11_55">
<rect width="35.0033" height="40" fill="white"/>
</clipPath>
</defs>
</svg>
